<svg width="30" height="30" viewBox="0 0 30 30" fill="none" xmlns="http://www.w3.org/2000/svg">
<mask id="path-1-inside-1_694_338" fill="white">
<path d="M15 6.25C14.5027 6.25 14.0258 6.44754 13.6741 6.79917C13.3225 7.15081 13.125 7.62772 13.125 8.125C13.125 8.62228 13.3225 9.09919 13.6741 9.45083C14.0258 9.80246 14.5027 10 15 10C15.4972 10 15.9742 9.80246 16.3258 9.45083C16.6774 9.09919 16.875 8.62228 16.875 8.125C16.875 7.62772 16.6774 7.15081 16.3258 6.79917C15.9742 6.44754 15.4972 6.25 15 6.25ZM10.625 8.125C10.625 7.55047 10.7381 6.98156 10.958 6.45076C11.1779 5.91996 11.5001 5.43766 11.9064 5.03141C12.3126 4.62515 12.7949 4.30289 13.3257 4.08303C13.8565 3.86316 14.4254 3.75 15 3.75C15.5745 3.75 16.1434 3.86316 16.6742 4.08303C17.205 4.30289 17.6873 4.62515 18.0936 5.03141C18.4998 5.43766 18.8221 5.91996 19.0419 6.45076C19.2618 6.98156 19.375 7.55047 19.375 8.125C19.375 9.28532 18.914 10.3981 18.0936 11.2186C17.2731 12.0391 16.1603 12.5 15 12.5C13.8396 12.5 12.7268 12.0391 11.9064 11.2186C11.0859 10.3981 10.625 9.28532 10.625 8.125ZM6.24997 10C5.91845 10 5.6005 10.1317 5.36608 10.3661C5.13166 10.6005 4.99997 10.9185 4.99997 11.25C4.99997 11.5815 5.13166 11.8995 5.36608 12.1339C5.6005 12.3683 5.91845 12.5 6.24997 12.5C6.58149 12.5 6.89943 12.3683 7.13385 12.1339C7.36827 11.8995 7.49997 11.5815 7.49997 11.25C7.49997 10.9185 7.36827 10.6005 7.13385 10.3661C6.89943 10.1317 6.58149 10 6.24997 10ZM2.49997 11.25C2.49997 10.2554 2.89505 9.30161 3.59832 8.59835C4.30158 7.89509 5.2554 7.5 6.24997 7.5C7.24453 7.5 8.19836 7.89509 8.90162 8.59835C9.60488 9.30161 9.99997 10.2554 9.99997 11.25C9.99997 12.2446 9.60488 13.1984 8.90162 13.9017C8.19836 14.6049 7.24453 15 6.24997 15C5.2554 15 4.30158 14.6049 3.59832 13.9017C2.89505 13.1984 2.49997 12.2446 2.49997 11.25ZM22.5 11.25C22.5 10.9185 22.6317 10.6005 22.8661 10.3661C23.1005 10.1317 23.4184 10 23.75 10C24.0815 10 24.3994 10.1317 24.6339 10.3661C24.8683 10.6005 25 10.9185 25 11.25C25 11.5815 24.8683 11.8995 24.6339 12.1339C24.3994 12.3683 24.0815 12.5 23.75 12.5C23.4184 12.5 23.1005 12.3683 22.8661 12.1339C22.6317 11.8995 22.5 11.5815 22.5 11.25ZM23.75 7.5C22.7554 7.5 21.8016 7.89509 21.0983 8.59835C20.3951 9.30161 20 10.2554 20 11.25C20 12.2446 20.3951 13.1984 21.0983 13.9017C21.8016 14.6049 22.7554 15 23.75 15C24.7445 15 25.6984 14.6049 26.4016 13.9017C27.1049 13.1984 27.5 12.2446 27.5 11.25C27.5 10.2554 27.1049 9.30161 26.4016 8.59835C25.6984 7.89509 24.7445 7.5 23.75 7.5ZM9.99997 18.125C9.99997 16.4 11.4 15 13.125 15H16.875C18.6 15 20 16.4 20 18.125V21.25C20 22.5761 19.4732 23.8479 18.5355 24.7855C17.5978 25.7232 16.326 26.25 15 26.25C13.6739 26.25 12.4021 25.7232 11.4644 24.7855C10.5268 23.8479 9.99997 22.5761 9.99997 21.25V18.125ZM13.125 17.5C12.9592 17.5 12.8002 17.5658 12.683 17.6831C12.5658 17.8003 12.5 17.9592 12.5 18.125V21.25C12.5 21.913 12.7634 22.5489 13.2322 23.0178C13.701 23.4866 14.3369 23.75 15 23.75C15.663 23.75 16.2989 23.4866 16.7677 23.0178C17.2366 22.5489 17.5 21.913 17.5 21.25V18.125C17.5 17.9592 17.4341 17.8003 17.3169 17.6831C17.1997 17.5658 17.0407 17.5 16.875 17.5H13.125ZM7.49997 18.125C7.49997 17.4025 7.63497 16.7125 7.88497 16.08L4.80747 16.905C4.00737 17.1195 3.32516 17.6428 2.91076 18.3601C2.49636 19.0773 2.38367 19.9297 2.59747 20.73L3.08247 22.5425C3.25246 23.1768 3.54574 23.7715 3.94557 24.2924C4.3454 24.8134 4.84394 25.2505 5.41272 25.5787C5.9815 25.907 6.60937 26.12 7.26048 26.2056C7.91159 26.2912 8.57318 26.2476 9.20747 26.0775L9.24997 26.065C8.67327 25.378 8.22449 24.593 7.92497 23.7475C7.37252 23.7503 6.8347 23.5701 6.39552 23.2349C5.95634 22.8998 5.64054 22.4286 5.49747 21.895L5.01247 20.0825C4.96972 19.9224 4.99233 19.7518 5.07531 19.6084C5.15829 19.4649 5.29485 19.3603 5.45497 19.3175L7.49997 18.7675V18.125ZM20.79 26.075L20.75 26.0675C21.32 25.385 21.7725 24.6025 22.075 23.7475C22.627 23.7498 23.1642 23.5693 23.6029 23.2342C24.0416 22.8991 24.357 22.4282 24.5 21.895L24.9825 20.0825C25.0252 19.9224 25.0026 19.7518 24.9196 19.6084C24.8366 19.4649 24.7001 19.3603 24.54 19.3175L22.5 18.77V18.125C22.5 17.4025 22.365 16.715 22.1175 16.08L25.1875 16.905C25.9876 17.1195 26.6698 17.6428 27.0842 18.3601C27.4986 19.0773 27.6113 19.9297 27.3975 20.73L26.9125 22.5425C26.7425 23.1768 26.4492 23.7715 26.0494 24.2924C25.6495 24.8134 25.151 25.2505 24.5822 25.5787C24.0134 25.907 23.3856 26.12 22.7345 26.2056C22.0833 26.2912 21.4218 26.2476 20.7875 26.0775"/>
</mask>
<path d="M15 6.25C14.5027 6.25 14.0258 6.44754 13.6741 6.79917C13.3225 7.15081 13.125 7.62772 13.125 8.125C13.125 8.62228 13.3225 9.09919 13.6741 9.45083C14.0258 9.80246 14.5027 10 15 10C15.4972 10 15.9742 9.80246 16.3258 9.45083C16.6774 9.09919 16.875 8.62228 16.875 8.125C16.875 7.62772 16.6774 7.15081 16.3258 6.79917C15.9742 6.44754 15.4972 6.25 15 6.25ZM10.625 8.125C10.625 7.55047 10.7381 6.98156 10.958 6.45076C11.1779 5.91996 11.5001 5.43766 11.9064 5.03141C12.3126 4.62515 12.7949 4.30289 13.3257 4.08303C13.8565 3.86316 14.4254 3.75 15 3.75C15.5745 3.75 16.1434 3.86316 16.6742 4.08303C17.205 4.30289 17.6873 4.62515 18.0936 5.03141C18.4998 5.43766 18.8221 5.91996 19.0419 6.45076C19.2618 6.98156 19.375 7.55047 19.375 8.125C19.375 9.28532 18.914 10.3981 18.0936 11.2186C17.2731 12.0391 16.1603 12.5 15 12.5C13.8396 12.5 12.7268 12.0391 11.9064 11.2186C11.0859 10.3981 10.625 9.28532 10.625 8.125ZM6.24997 10C5.91845 10 5.6005 10.1317 5.36608 10.3661C5.13166 10.6005 4.99997 10.9185 4.99997 11.25C4.99997 11.5815 5.13166 11.8995 5.36608 12.1339C5.6005 12.3683 5.91845 12.5 6.24997 12.5C6.58149 12.5 6.89943 12.3683 7.13385 12.1339C7.36827 11.8995 7.49997 11.5815 7.49997 11.25C7.49997 10.9185 7.36827 10.6005 7.13385 10.3661C6.89943 10.1317 6.58149 10 6.24997 10ZM2.49997 11.25C2.49997 10.2554 2.89505 9.30161 3.59832 8.59835C4.30158 7.89509 5.2554 7.5 6.24997 7.5C7.24453 7.5 8.19836 7.89509 8.90162 8.59835C9.60488 9.30161 9.99997 10.2554 9.99997 11.25C9.99997 12.2446 9.60488 13.1984 8.90162 13.9017C8.19836 14.6049 7.24453 15 6.24997 15C5.2554 15 4.30158 14.6049 3.59832 13.9017C2.89505 13.1984 2.49997 12.2446 2.49997 11.25ZM22.5 11.25C22.5 10.9185 22.6317 10.6005 22.8661 10.3661C23.1005 10.1317 23.4184 10 23.75 10C24.0815 10 24.3994 10.1317 24.6339 10.3661C24.8683 10.6005 25 10.9185 25 11.25C25 11.5815 24.8683 11.8995 24.6339 12.1339C24.3994 12.3683 24.0815 12.5 23.75 12.5C23.4184 12.5 23.1005 12.3683 22.8661 12.1339C22.6317 11.8995 22.5 11.5815 22.5 11.25ZM23.75 7.5C22.7554 7.5 21.8016 7.89509 21.0983 8.59835C20.3951 9.30161 20 10.2554 20 11.25C20 12.2446 20.3951 13.1984 21.0983 13.9017C21.8016 14.6049 22.7554 15 23.75 15C24.7445 15 25.6984 14.6049 26.4016 13.9017C27.1049 13.1984 27.5 12.2446 27.5 11.25C27.5 10.2554 27.1049 9.30161 26.4016 8.59835C25.6984 7.89509 24.7445 7.5 23.75 7.5ZM9.99997 18.125C9.99997 16.4 11.4 15 13.125 15H16.875C18.6 15 20 16.4 20 18.125V21.25C20 22.5761 19.4732 23.8479 18.5355 24.7855C17.5978 25.7232 16.326 26.25 15 26.25C13.6739 26.25 12.4021 25.7232 11.4644 24.7855C10.5268 23.8479 9.99997 22.5761 9.99997 21.25V18.125ZM13.125 17.5C12.9592 17.5 12.8002 17.5658 12.683 17.6831C12.5658 17.8003 12.5 17.9592 12.5 18.125V21.25C12.5 21.913 12.7634 22.5489 13.2322 23.0178C13.701 23.4866 14.3369 23.75 15 23.75C15.663 23.75 16.2989 23.4866 16.7677 23.0178C17.2366 22.5489 17.5 21.913 17.5 21.25V18.125C17.5 17.9592 17.4341 17.8003 17.3169 17.6831C17.1997 17.5658 17.0407 17.5 16.875 17.5H13.125ZM7.49997 18.125C7.49997 17.4025 7.63497 16.7125 7.88497 16.08L4.80747 16.905C4.00737 17.1195 3.32516 17.6428 2.91076 18.3601C2.49636 19.0773 2.38367 19.9297 2.59747 20.73L3.08247 22.5425C3.25246 23.1768 3.54574 23.7715 3.94557 24.2924C4.3454 24.8134 4.84394 25.2505 5.41272 25.5787C5.9815 25.907 6.60937 26.12 7.26048 26.2056C7.91159 26.2912 8.57318 26.2476 9.20747 26.0775L9.24997 26.065C8.67327 25.378 8.22449 24.593 7.92497 23.7475C7.37252 23.7503 6.8347 23.5701 6.39552 23.2349C5.95634 22.8998 5.64054 22.4286 5.49747 21.895L5.01247 20.0825C4.96972 19.9224 4.99233 19.7518 5.07531 19.6084C5.15829 19.4649 5.29485 19.3603 5.45497 19.3175L7.49997 18.7675V18.125ZM20.79 26.075L20.75 26.0675C21.32 25.385 21.7725 24.6025 22.075 23.7475C22.627 23.7498 23.1642 23.5693 23.6029 23.2342C24.0416 22.8991 24.357 22.4282 24.5 21.895L24.9825 20.0825C25.0252 19.9224 25.0026 19.7518 24.9196 19.6084C24.8366 19.4649 24.7001 19.3603 24.54 19.3175L22.5 18.77V18.125C22.5 17.4025 22.365 16.715 22.1175 16.08L25.1875 16.905C25.9876 17.1195 26.6698 17.6428 27.0842 18.3601C27.4986 19.0773 27.6113 19.9297 27.3975 20.73L26.9125 22.5425C26.7425 23.1768 26.4492 23.7715 26.0494 24.2924C25.6495 24.8134 25.151 25.2505 24.5822 25.5787C24.0134 25.907 23.3856 26.12 22.7345 26.2056C22.0833 26.2912 21.4218 26.2476 20.7875 26.0775" fill="black"/>
<path d="M13.125 8.125H12.925H13.125ZM15 10V10.2V10ZM16.875 8.125H17.075H16.875ZM15 3.75V3.55V3.75ZM19.375 8.125H19.575H19.375ZM15 12.5V12.7V12.5ZM6.24997 10V10.2V10ZM4.99997 11.25H4.79997H4.99997ZM2.49997 11.25H2.29997H2.49997ZM6.24997 7.5V7.3V7.5ZM9.99997 11.25H10.2H9.99997ZM23.75 10V10.2V10ZM20 11.25H19.8H20ZM23.75 15V15.2V15ZM27.5 11.25H27.7H27.5ZM20 21.25H20.2H20ZM9.99997 21.25H9.79997H9.99997ZM7.88497 16.08L8.07096 16.1535L8.21705 15.7839L7.83318 15.8868L7.88497 16.08ZM4.80747 16.905L4.85925 17.0982L4.85925 17.0982L4.80747 16.905ZM2.59747 20.73L2.40424 20.7816L2.40426 20.7817L2.59747 20.73ZM3.08247 22.5425L2.88926 22.5942L2.88928 22.5943L3.08247 22.5425ZM9.20747 26.0775L9.2593 26.2707L9.2639 26.2694L9.20747 26.0775ZM9.24997 26.065L9.3064 26.2569L9.59972 26.1706L9.40315 25.9364L9.24997 26.065ZM7.92497 23.7475L8.11349 23.6807L8.06604 23.5468L7.92394 23.5475L7.92497 23.7475ZM5.49747 21.895L5.30426 21.9467L5.30429 21.9468L5.49747 21.895ZM5.01247 20.0825L4.81923 20.1341L4.81926 20.1342L5.01247 20.0825ZM5.45497 19.3175L5.5066 19.5107L5.50691 19.5106L5.45497 19.3175ZM7.49997 18.7675L7.55191 18.9606L7.69997 18.9208V18.7675H7.49997ZM20.75 26.0675L20.5965 25.9393L20.3777 26.2012L20.7131 26.2641L20.75 26.0675ZM22.075 23.7475L22.0758 23.5475L21.9338 23.5469L21.8864 23.6808L22.075 23.7475ZM24.5 21.895L24.6931 21.9468L24.6932 21.9465L24.5 21.895ZM24.9825 20.0825L24.7892 20.0309L24.7892 20.031L24.9825 20.0825ZM24.54 19.3175L24.4881 19.5107L24.4883 19.5107L24.54 19.3175ZM22.5 18.77H22.3V18.9234L22.4481 18.9632L22.5 18.77ZM22.1175 16.08L22.1694 15.8869L21.7875 15.7842L21.9311 16.1526L22.1175 16.08ZM25.1875 16.905L25.1356 17.0981L25.1357 17.0982L25.1875 16.905ZM27.3975 20.73L27.5907 20.7817L27.5907 20.7816L27.3975 20.73ZM26.9125 22.5425L27.1057 22.5943L27.1057 22.5942L26.9125 22.5425ZM15 6.05C14.4496 6.05 13.9219 6.26862 13.5327 6.65775L13.8156 6.9406C14.1297 6.62647 14.5557 6.45 15 6.45V6.05ZM13.5327 6.65775C13.1436 7.04689 12.925 7.57468 12.925 8.125H13.325C13.325 7.68076 13.5014 7.25472 13.8156 6.9406L13.5327 6.65775ZM12.925 8.125C12.925 8.67532 13.1436 9.20311 13.5327 9.59225L13.8156 9.3094C13.5014 8.99528 13.325 8.56924 13.325 8.125H12.925ZM13.5327 9.59225C13.9219 9.98138 14.4496 10.2 15 10.2V9.8C14.5557 9.8 14.1297 9.62353 13.8156 9.3094L13.5327 9.59225ZM15 10.2C15.5503 10.2 16.0781 9.98138 16.4672 9.59225L16.1844 9.3094C15.8702 9.62353 15.4442 9.8 15 9.8V10.2ZM16.4672 9.59225C16.8564 9.20311 17.075 8.67532 17.075 8.125H16.675C16.675 8.56924 16.4985 8.99528 16.1844 9.3094L16.4672 9.59225ZM17.075 8.125C17.075 7.57468 16.8564 7.04689 16.4672 6.65775L16.1844 6.9406C16.4985 7.25472 16.675 7.68076 16.675 8.125H17.075ZM16.4672 6.65775C16.0781 6.26862 15.5503 6.05 15 6.05V6.45C15.4442 6.45 15.8702 6.62647 16.1844 6.9406L16.4672 6.65775ZM10.825 8.125C10.825 7.57673 10.933 7.03383 11.1428 6.5273L10.7732 6.37422C10.5433 6.92929 10.425 7.5242 10.425 8.125H10.825ZM11.1428 6.5273C11.3526 6.02076 11.6601 5.56051 12.0478 5.17283L11.765 4.88999C11.3401 5.31481 11.0031 5.81916 10.7732 6.37422L11.1428 6.5273ZM12.0478 5.17283C12.4355 4.78514 12.8957 4.47762 13.4023 4.2678L13.2492 3.89825C12.6941 4.12817 12.1898 4.46516 11.765 4.88999L12.0478 5.17283ZM13.4023 4.2678C13.9088 4.05799 14.4517 3.95 15 3.95V3.55C14.3992 3.55 13.8043 3.66834 13.2492 3.89825L13.4023 4.2678ZM15 3.95C15.5482 3.95 16.0911 4.05799 16.5977 4.2678L16.7507 3.89825C16.1957 3.66834 15.6008 3.55 15 3.55V3.95ZM16.5977 4.2678C17.1042 4.47762 17.5645 4.78514 17.9521 5.17283L18.235 4.88999C17.8102 4.46516 17.3058 4.12817 16.7507 3.89825L16.5977 4.2678ZM17.9521 5.17283C18.3398 5.56051 18.6474 6.02076 18.8572 6.5273L19.2267 6.37422C18.9968 5.81916 18.6598 5.31481 18.235 4.88999L17.9521 5.17283ZM18.8572 6.5273C19.067 7.03383 19.175 7.57673 19.175 8.125H19.575C19.575 7.5242 19.4566 6.92929 19.2267 6.37422L18.8572 6.5273ZM19.175 8.125C19.175 9.23228 18.7351 10.2942 17.9521 11.0772L18.235 11.36C19.093 10.502 19.575 9.33837 19.575 8.125H19.175ZM17.9521 11.0772C17.1692 11.8601 16.1072 12.3 15 12.3V12.7C16.2133 12.7 17.377 12.218 18.235 11.36L17.9521 11.0772ZM15 12.3C13.8927 12.3 12.8308 11.8601 12.0478 11.0772L11.765 11.36C12.6229 12.218 13.7866 12.7 15 12.7V12.3ZM12.0478 11.0772C11.2648 10.2942 10.825 9.23228 10.825 8.125H10.425C10.425 9.33837 10.907 10.502 11.765 11.36L12.0478 11.0772ZM6.24997 9.8C5.8654 9.8 5.49659 9.95277 5.22466 10.2247L5.5075 10.5075C5.70442 10.3106 5.97149 10.2 6.24997 10.2V9.8ZM5.22466 10.2247C4.95273 10.4966 4.79997 10.8654 4.79997 11.25H5.19997C5.19997 10.9715 5.31059 10.7045 5.5075 10.5075L5.22466 10.2247ZM4.79997 11.25C4.79997 11.6346 4.95273 12.0034 5.22466 12.2753L5.5075 11.9925C5.31059 11.7955 5.19997 11.5285 5.19997 11.25H4.79997ZM5.22466 12.2753C5.49659 12.5472 5.8654 12.7 6.24997 12.7V12.3C5.97149 12.3 5.70442 12.1894 5.5075 11.9925L5.22466 12.2753ZM6.24997 12.7C6.63453 12.7 7.00334 12.5472 7.27527 12.2753L6.99243 11.9925C6.79551 12.1894 6.52844 12.3 6.24997 12.3V12.7ZM7.27527 12.2753C7.5472 12.0034 7.69997 11.6346 7.69997 11.25H7.29997C7.29997 11.5285 7.18934 11.7955 6.99243 11.9925L7.27527 12.2753ZM7.69997 11.25C7.69997 10.8654 7.5472 10.4966 7.27527 10.2247L6.99243 10.5075C7.18934 10.7045 7.29997 10.9715 7.29997 11.25H7.69997ZM7.27527 10.2247C7.00334 9.95277 6.63453 9.8 6.24997 9.8V10.2C6.52844 10.2 6.79551 10.3106 6.99243 10.5075L7.27527 10.2247ZM2.69997 11.25C2.69997 10.3085 3.07398 9.40553 3.73974 8.73977L3.45689 8.45693C2.71613 9.1977 2.29997 10.2024 2.29997 11.25H2.69997ZM3.73974 8.73977C4.40549 8.07402 5.30845 7.7 6.24997 7.7V7.3C5.20236 7.3 4.19766 7.71616 3.45689 8.45693L3.73974 8.73977ZM6.24997 7.7C7.19148 7.7 8.09444 8.07402 8.7602 8.73977L9.04304 8.45693C8.30227 7.71616 7.29757 7.3 6.24997 7.3V7.7ZM8.7602 8.73977C9.42595 9.40553 9.79997 10.3085 9.79997 11.25H10.2C10.2 10.2024 9.78381 9.1977 9.04304 8.45693L8.7602 8.73977ZM9.79997 11.25C9.79997 12.1915 9.42595 13.0945 8.7602 13.7602L9.04304 14.0431C9.78381 13.3023 10.2 12.2976 10.2 11.25H9.79997ZM8.7602 13.7602C8.09444 14.426 7.19148 14.8 6.24997 14.8V15.2C7.29757 15.2 8.30227 14.7838 9.04304 14.0431L8.7602 13.7602ZM6.24997 14.8C5.30845 14.8 4.40549 14.426 3.73974 13.7602L3.45689 14.0431C4.19766 14.7838 5.20236 15.2 6.24997 15.2V14.8ZM3.73974 13.7602C3.07398 13.0945 2.69997 12.1915 2.69997 11.25H2.29997C2.29997 12.2976 2.71613 13.3023 3.45689 14.0431L3.73974 13.7602ZM22.7 11.25C22.7 10.9715 22.8106 10.7045 23.0075 10.5075L22.7247 10.2247C22.4527 10.4966 22.3 10.8654 22.3 11.25H22.7ZM23.0075 10.5075C23.2044 10.3106 23.4715 10.2 23.75 10.2V9.8C23.3654 9.8 22.9966 9.95277 22.7247 10.2247L23.0075 10.5075ZM23.75 10.2C24.0284 10.2 24.2955 10.3106 24.4924 10.5075L24.7753 10.2247C24.5033 9.95277 24.1345 9.8 23.75 9.8V10.2ZM24.4924 10.5075C24.6893 10.7045 24.8 10.9715 24.8 11.25H25.2C25.2 10.8654 25.0472 10.4966 24.7753 10.2247L24.4924 10.5075ZM24.8 11.25C24.8 11.5285 24.6893 11.7955 24.4924 11.9925L24.7753 12.2753C25.0472 12.0034 25.2 11.6346 25.2 11.25H24.8ZM24.4924 11.9925C24.2955 12.1894 24.0284 12.3 23.75 12.3V12.7C24.1345 12.7 24.5033 12.5472 24.7753 12.2753L24.4924 11.9925ZM23.75 12.3C23.4715 12.3 23.2044 12.1894 23.0075 11.9925L22.7247 12.2753C22.9966 12.5472 23.3654 12.7 23.75 12.7V12.3ZM23.0075 11.9925C22.8106 11.7955 22.7 11.5285 22.7 11.25H22.3C22.3 11.6346 22.4527 12.0034 22.7247 12.2753L23.0075 11.9925ZM23.75 7.3C22.7024 7.3 21.6977 7.71616 20.9569 8.45693L21.2397 8.73977C21.9055 8.07402 22.8084 7.7 23.75 7.7V7.3ZM20.9569 8.45693C20.2161 9.1977 19.8 10.2024 19.8 11.25H20.2C20.2 10.3085 20.574 9.40553 21.2397 8.73977L20.9569 8.45693ZM19.8 11.25C19.8 12.2976 20.2161 13.3023 20.9569 14.0431L21.2397 13.7602C20.574 13.0945 20.2 12.1915 20.2 11.25H19.8ZM20.9569 14.0431C21.6977 14.7838 22.7024 15.2 23.75 15.2V14.8C22.8084 14.8 21.9055 14.426 21.2397 13.7602L20.9569 14.0431ZM23.75 15.2C24.7976 15.2 25.8023 14.7838 26.543 14.0431L26.2602 13.7602C25.5944 14.426 24.6915 14.8 23.75 14.8V15.2ZM26.543 14.0431C27.2838 13.3023 27.7 12.2976 27.7 11.25H27.3C27.3 12.1915 26.926 13.0945 26.2602 13.7602L26.543 14.0431ZM27.7 11.25C27.7 10.2024 27.2838 9.1977 26.543 8.45693L26.2602 8.73977C26.926 9.40553 27.3 10.3085 27.3 11.25H27.7ZM26.543 8.45693C25.8023 7.71616 24.7976 7.3 23.75 7.3V7.7C24.6915 7.7 25.5944 8.07402 26.2602 8.73977L26.543 8.45693ZM10.2 18.125C10.2 16.5105 11.5104 15.2 13.125 15.2V14.8C11.2895 14.8 9.79997 16.2895 9.79997 18.125H10.2ZM13.125 15.2H16.875V14.8H13.125V15.2ZM16.875 15.2C18.4895 15.2 19.8 16.5105 19.8 18.125H20.2C20.2 16.2895 18.7104 14.8 16.875 14.8V15.2ZM19.8 18.125V21.25H20.2V18.125H19.8ZM19.8 21.25C19.8 22.523 19.2943 23.7439 18.3941 24.6441L18.6769 24.927C19.6521 23.9518 20.2 22.6291 20.2 21.25H19.8ZM18.3941 24.6441C17.4939 25.5443 16.273 26.05 15 26.05V26.45C16.3791 26.45 17.7017 25.9021 18.6769 24.927L18.3941 24.6441ZM15 26.05C13.7269 26.05 12.506 25.5443 11.6059 24.6441L11.323 24.927C12.2982 25.9021 13.6208 26.45 15 26.45V26.05ZM11.6059 24.6441C10.7057 23.7439 10.2 22.523 10.2 21.25H9.79997C9.79997 22.6291 10.3478 23.9518 11.323 24.927L11.6059 24.6441ZM10.2 21.25V18.125H9.79997V21.25H10.2ZM13.125 17.3C12.9062 17.3 12.6963 17.3869 12.5416 17.5416L12.8244 17.8245C12.9041 17.7448 13.0122 17.7 13.125 17.7V17.3ZM12.5416 17.5416C12.3869 17.6964 12.3 17.9062 12.3 18.125H12.7C12.7 18.0123 12.7447 17.9042 12.8244 17.8245L12.5416 17.5416ZM12.3 18.125V21.25H12.7V18.125H12.3ZM12.3 21.25C12.3 21.9661 12.5844 22.6528 13.0908 23.1592L13.3736 22.8763C12.9423 22.445 12.7 21.86 12.7 21.25H12.3ZM13.0908 23.1592C13.5971 23.6655 14.2839 23.95 15 23.95V23.55C14.39 23.55 13.805 23.3077 13.3736 22.8763L13.0908 23.1592ZM15 23.95C15.7161 23.95 16.4028 23.6655 16.9092 23.1592L16.6263 22.8763C16.195 23.3077 15.61 23.55 15 23.55V23.95ZM16.9092 23.1592C17.4155 22.6528 17.7 21.9661 17.7 21.25H17.3C17.3 21.86 17.0576 22.445 16.6263 22.8763L16.9092 23.1592ZM17.7 21.25V18.125H17.3V21.25H17.7ZM17.7 18.125C17.7 17.9062 17.613 17.6964 17.4583 17.5416L17.1755 17.8245C17.2552 17.9042 17.3 18.0123 17.3 18.125H17.7ZM17.4583 17.5416C17.3036 17.3869 17.0938 17.3 16.875 17.3V17.7C16.9877 17.7 17.0958 17.7448 17.1755 17.8245L17.4583 17.5416ZM16.875 17.3H13.125V17.7H16.875V17.3ZM7.69997 18.125C7.69997 17.4276 7.83025 16.7625 8.07096 16.1535L7.69897 16.0065C7.43969 16.6625 7.29997 17.3774 7.29997 18.125H7.69997ZM7.83318 15.8868L4.75568 16.7118L4.85925 17.0982L7.93675 16.2732L7.83318 15.8868ZM4.75568 16.7118C3.90438 16.94 3.17851 17.4969 2.73758 18.26L3.08393 18.4601C3.47181 17.7888 4.11036 17.2989 4.85925 17.0982L4.75568 16.7118ZM2.73758 18.26C2.29666 19.0231 2.17676 19.9301 2.40424 20.7816L2.79069 20.6784C2.59058 19.9293 2.69605 19.1315 3.08393 18.4601L2.73758 18.26ZM2.40426 20.7817L2.88926 22.5942L3.27567 22.4908L2.79067 20.6783L2.40426 20.7817ZM2.88928 22.5943C3.06608 23.254 3.37109 23.8724 3.78691 24.4142L4.10423 24.1706C3.7204 23.6705 3.43884 23.0997 3.27565 22.4907L2.88928 22.5943ZM3.78691 24.4142C4.20274 24.956 4.72122 25.4106 5.31275 25.752L5.51269 25.4055C4.96667 25.0904 4.48807 24.6708 4.10423 24.1706L3.78691 24.4142ZM5.31275 25.752C5.90428 26.0934 6.55727 26.3149 7.23442 26.4039L7.28654 26.0073C6.66148 25.9251 6.05872 25.7207 5.51269 25.4055L5.31275 25.752ZM7.23442 26.4039C7.91157 26.4929 8.59963 26.4476 9.25928 26.2707L9.15565 25.8843C8.54674 26.0477 7.91161 26.0895 7.28654 26.0073L7.23442 26.4039ZM9.2639 26.2694L9.3064 26.2569L9.19353 25.8731L9.15103 25.8856L9.2639 26.2694ZM9.40315 25.9364C8.84183 25.2677 8.40503 24.5037 8.11349 23.6807L7.73645 23.8143C8.04396 24.6824 8.5047 25.4882 9.09678 26.1936L9.40315 25.9364ZM7.92394 23.5475C7.41569 23.5501 6.9209 23.3843 6.51685 23.0759L6.27419 23.3939C6.7485 23.7559 7.32935 23.9506 7.92599 23.9475L7.92394 23.5475ZM6.51685 23.0759C6.11281 22.7676 5.82227 22.3341 5.69064 21.8432L5.30429 21.9468C5.45881 22.5231 5.79987 23.032 6.27419 23.3939L6.51685 23.0759ZM5.69067 21.8433L5.20567 20.0308L4.81926 20.1342L5.30426 21.9467L5.69067 21.8433ZM5.2057 20.0309C5.17664 19.922 5.19201 19.8061 5.24843 19.7085L4.90219 19.5082C4.79265 19.6976 4.76281 19.9227 4.81923 20.1341L5.2057 20.0309ZM5.24843 19.7085C5.30486 19.611 5.39772 19.5398 5.5066 19.5107L5.40333 19.1243C5.19198 19.1808 5.01172 19.3189 4.90219 19.5082L5.24843 19.7085ZM5.50691 19.5106L7.55191 18.9606L7.44802 18.5744L5.40302 19.1244L5.50691 19.5106ZM7.69997 18.7675V18.125H7.29997V18.7675H7.69997ZM20.8268 25.8784L20.7868 25.8709L20.7131 26.2641L20.7531 26.2716L20.8268 25.8784ZM20.9035 26.1957C21.4883 25.4954 21.9529 24.6922 22.2635 23.8142L21.8864 23.6808C21.5921 24.5128 21.1516 25.2746 20.5965 25.9393L20.9035 26.1957ZM22.0741 23.9475C22.6703 23.95 23.2506 23.755 23.7243 23.3931L23.4815 23.0752C23.0779 23.3835 22.5836 23.5496 22.0758 23.5475L22.0741 23.9475ZM23.7243 23.3931C24.1981 23.0312 24.5387 22.5226 24.6931 21.9468L24.3068 21.8432C24.1753 22.3337 23.8851 22.7669 23.4815 23.0752L23.7243 23.3931ZM24.6932 21.9465L25.1757 20.1339L24.7892 20.031L24.3067 21.8436L24.6932 21.9465ZM25.1757 20.1341C25.2321 19.9227 25.2023 19.6976 25.0927 19.5082L24.7465 19.7085C24.8029 19.8061 24.8183 19.922 24.7892 20.0309L25.1757 20.1341ZM25.0927 19.5082C24.9832 19.3189 24.8029 19.1808 24.5916 19.1243L24.4883 19.5107C24.5972 19.5398 24.6901 19.611 24.7465 19.7085L25.0927 19.5082ZM24.5918 19.1243L22.5518 18.5768L22.4481 18.9632L24.4881 19.5107L24.5918 19.1243ZM22.7 18.77V18.125H22.3V18.77H22.7ZM22.7 18.125C22.7 17.3773 22.5602 16.6652 22.3038 16.0074L21.9311 16.1526C22.1697 16.7648 22.3 17.4277 22.3 18.125H22.7ZM22.0656 16.2731L25.1356 17.0981L25.2394 16.7119L22.1694 15.8869L22.0656 16.2731ZM25.1357 17.0982C25.8846 17.2989 26.5231 17.7888 26.911 18.4601L27.2574 18.26C26.8164 17.4969 26.0906 16.94 25.2393 16.7118L25.1357 17.0982ZM26.911 18.4601C27.2989 19.1315 27.4044 19.9293 27.2042 20.6784L27.5907 20.7816C27.8182 19.9301 27.6983 19.0231 27.2574 18.26L26.911 18.4601ZM27.2043 20.6783L26.7193 22.4908L27.1057 22.5942L27.5907 20.7817L27.2043 20.6783ZM26.7193 22.4907C26.5561 23.0997 26.2745 23.6705 25.8907 24.1706L26.208 24.4142C26.6238 23.8724 26.9289 23.254 27.1057 22.5943L26.7193 22.4907ZM25.8907 24.1706C25.5069 24.6708 25.0283 25.0904 24.4822 25.4055L24.6822 25.752C25.2737 25.4106 25.7922 24.956 26.208 24.4142L25.8907 24.1706ZM24.4822 25.4055C23.9362 25.7207 23.3335 25.9251 22.7084 26.0073L22.7605 26.4039C23.4377 26.3149 24.0907 26.0934 24.6822 25.752L24.4822 25.4055ZM22.7084 26.0073C22.0833 26.0895 21.4482 26.0477 20.8393 25.8843L20.7356 26.2707C21.3953 26.4476 22.0834 26.4929 22.7605 26.4039L22.7084 26.0073Z" fill="white" mask="url(#path-1-inside-1_694_338)"/>
</svg>
