<svg width="30" height="30" viewBox="0 0 30 30" fill="none" xmlns="http://www.w3.org/2000/svg">
<path d="M23.75 5C24.413 5 25.0489 5.26339 25.5178 5.73223C25.9866 6.20107 26.25 6.83696 26.25 7.5V8.75H18.75C17.0924 8.75 15.5027 9.40848 14.3306 10.5806C13.1585 11.7527 12.5 13.3424 12.5 15C12.5 16.6576 13.1585 18.2473 14.3306 19.4194C15.5027 20.5915 17.0924 21.25 18.75 21.25H26.25V22.5C26.25 23.163 25.9866 23.7989 25.5178 24.2678C25.0489 24.7366 24.413 25 23.75 25H6.25C5.58696 25 4.95107 24.7366 4.48223 24.2678C4.01339 23.7989 3.75 23.163 3.75 22.5V7.5C3.75 6.83696 4.01339 6.20107 4.48223 5.73223C4.95107 5.26339 5.58696 5 6.25 5H23.75ZM25 11.25C25.663 11.25 26.2989 11.5134 26.7678 11.9822C27.2366 12.4511 27.5 13.087 27.5 13.75V16.25C27.5 16.913 27.2366 17.5489 26.7678 18.0178C26.2989 18.4866 25.663 18.75 25 18.75H18.75C17.7554 18.75 16.8016 18.3549 16.0983 17.6517C15.3951 16.9484 15 15.9946 15 15C15 14.0054 15.3951 13.0516 16.0983 12.3483C16.8016 11.6451 17.7554 11.25 18.75 11.25H25ZM18.75 13.75C18.4185 13.75 18.1005 13.8817 17.8661 14.1161C17.6317 14.3505 17.5 14.6685 17.5 15C17.5 15.3315 17.6317 15.6495 17.8661 15.8839C18.1005 16.1183 18.4185 16.25 18.75 16.25C19.0815 16.25 19.3995 16.1183 19.6339 15.8839C19.8683 15.6495 20 15.3315 20 15C20 14.6685 19.8683 14.3505 19.6339 14.1161C19.3995 13.8817 19.0815 13.75 18.75 13.75Z" fill="black"/>
</svg>
