<svg width="30" height="30" viewBox="0 0 30 30" fill="none" xmlns="http://www.w3.org/2000/svg">
<path d="M15.0003 12.6C15.7144 12.5999 16.3284 12.3447 16.8369 11.837C17.3456 11.3292 17.6009 10.715 17.6 9.99988C17.5991 9.28497 17.3439 8.67128 16.837 8.16429C16.33 7.65731 15.7159 7.40173 15.0002 7.4C14.2842 7.39827 13.6702 7.65403 13.164 8.16459C12.6582 8.67467 12.4026 9.28807 12.4 9.99964C12.3974 10.7118 12.6533 11.326 13.1643 11.837C13.6752 12.3479 14.289 12.6034 15.0003 12.6ZM15.0003 12.6C15.0002 12.6 15.0001 12.6 15 12.6V12.5L15.0003 12.6ZM24.9 21.4999V21.5V24.9H5.1V21.5C5.1 20.8098 5.27754 20.1772 5.63267 19.5999C5.9883 19.0218 6.45891 18.5813 7.04546 18.2766C8.33049 17.6341 9.63564 17.1528 10.961 16.8322C12.2866 16.5116 13.6329 16.3508 15.0001 16.35C16.3671 16.3492 17.7133 16.5099 19.0389 16.8322C20.3643 17.1544 21.6696 17.6358 22.9547 18.2767C23.542 18.5806 24.0129 19.021 24.3685 19.5998C24.7237 20.178 24.9008 20.8106 24.9 21.4999ZM7.4 22.5V22.6L7.5 21.5H7.4V21.5002V22.5ZM15 14.9C13.6517 14.9 12.5 14.4211 11.5395 13.4605C10.5789 12.5 10.1 11.3483 10.1 10C10.1 8.65173 10.5789 7.50002 11.5395 6.53946C12.5 5.5789 13.6517 5.1 15 5.1C16.3483 5.1 17.5 5.5789 18.4605 6.53946C19.4211 7.50002 19.9 8.65173 19.9 10C19.9 11.3483 19.4211 12.5 18.4605 13.4605C17.5 14.4211 16.3483 14.9 15 14.9Z" fill="black" stroke="white" stroke-width="0.2"/>
</svg>
