<svg width="30" height="30" viewBox="0 0 30 30" fill="none" xmlns="http://www.w3.org/2000/svg">
<path d="M10.3125 6.5625C10.3125 5.3193 10.8064 4.12701 11.6854 3.24794C12.5645 2.36886 13.7568 1.875 15 1.875C16.2432 1.875 17.4355 2.36886 18.3146 3.24794C19.1936 4.12701 19.6875 5.3193 19.6875 6.5625C19.6875 7.8057 19.1936 8.99799 18.3146 9.87706C17.4355 10.7561 16.2432 11.25 15 11.25C13.7568 11.25 12.5645 10.7561 11.6854 9.87706C10.8064 8.99799 10.3125 7.8057 10.3125 6.5625ZM12.1875 13.125C11.4416 13.125 10.7262 13.4213 10.1988 13.9488C9.67132 14.4762 9.375 15.1916 9.375 15.9375V20.625C9.375 22.1168 9.96764 23.5476 11.0225 24.6025C12.0774 25.6574 13.5082 26.25 15 26.25C16.4918 26.25 17.9226 25.6574 18.9775 24.6025C20.0324 23.5476 20.625 22.1168 20.625 20.625V15.9375C20.625 15.1916 20.3287 14.4762 19.8012 13.9488C19.2738 13.4213 18.5584 13.125 17.8125 13.125H12.1875ZM7.605 14.9438C7.5347 15.2703 7.4995 15.6035 7.5 15.9375V20.625C7.49982 21.6285 7.70102 22.6218 8.09169 23.5462C8.48236 24.4705 9.05455 25.3071 9.77438 26.0063L9.58688 26.0588C8.14627 26.4442 6.61157 26.2418 5.32014 25.496C4.02872 24.7503 3.08628 23.5223 2.7 22.0819L1.97063 19.3631C1.87508 19.0063 1.85074 18.6342 1.89901 18.268C1.94728 17.9018 2.0672 17.5487 2.25193 17.2289C2.43666 16.9091 2.68259 16.6287 2.97566 16.4039C3.26873 16.1791 3.60321 16.0143 3.96 15.9188L7.605 14.9438ZM20.2238 26.0063C20.9439 25.3072 21.5165 24.4707 21.9075 23.5464C22.2985 22.6221 22.4999 21.6286 22.5 20.625V15.9375C22.4988 15.595 22.4638 15.2638 22.395 14.9438L26.0381 15.9188C26.3951 16.0143 26.7298 16.1792 27.023 16.4041C27.3162 16.629 27.5623 16.9096 27.747 17.2296C27.9318 17.5497 28.0516 17.903 28.0998 18.2694C28.1479 18.6358 28.1233 19.0081 28.0275 19.365L27.3 22.0819C27.1046 22.811 26.7645 23.4934 26.2998 24.0884C25.8351 24.6833 25.2555 25.1786 24.5953 25.5448C23.9352 25.911 23.2081 26.1406 22.4574 26.2199C21.7067 26.2991 20.9458 26.2265 20.2238 26.0063ZM1.875 9.375C1.875 8.38044 2.27009 7.42661 2.97335 6.72335C3.67662 6.02009 4.63044 5.625 5.625 5.625C6.61957 5.625 7.57339 6.02009 8.27665 6.72335C8.97992 7.42661 9.375 8.38044 9.375 9.375C9.375 10.3696 8.97992 11.3234 8.27665 12.0267C7.57339 12.7299 6.61957 13.125 5.625 13.125C4.63044 13.125 3.67662 12.7299 2.97335 12.0267C2.27009 11.3234 1.875 10.3696 1.875 9.375ZM20.625 9.375C20.625 8.38044 21.0201 7.42661 21.7234 6.72335C22.4266 6.02009 23.3804 5.625 24.375 5.625C25.3696 5.625 26.3234 6.02009 27.0267 6.72335C27.7299 7.42661 28.125 8.38044 28.125 9.375C28.125 10.3696 27.7299 11.3234 27.0267 12.0267C26.3234 12.7299 25.3696 13.125 24.375 13.125C23.3804 13.125 22.4266 12.7299 21.7234 12.0267C21.0201 11.3234 20.625 10.3696 20.625 9.375Z" fill="black"/>
</svg>
