<svg width="30" height="30" viewBox="0 0 30 30" fill="none" xmlns="http://www.w3.org/2000/svg">
<path d="M2.5 9.0625C2.5 7.98506 2.92801 6.95175 3.68988 6.18988C4.45175 5.42801 5.48506 5 6.5625 5H23.4375C23.971 5 24.4993 5.10508 24.9922 5.30924C25.485 5.5134 25.9329 5.81264 26.3101 6.18988C26.6874 6.56712 26.9866 7.01496 27.1908 7.50785C27.3949 8.00073 27.5 8.529 27.5 9.0625V20.9375C27.5 21.471 27.3949 21.9993 27.1908 22.4922C26.9866 22.985 26.6874 23.4329 26.3101 23.8101C25.9329 24.1874 25.485 24.4866 24.9922 24.6908C24.4993 24.8949 23.971 25 23.4375 25H6.5625C5.48506 25 4.45175 24.572 3.68988 23.8101C2.92801 23.0483 2.5 22.0149 2.5 20.9375V9.0625ZM20 15C20.663 15 21.2989 14.7366 21.7678 14.2678C22.2366 13.7989 22.5 13.163 22.5 12.5C22.5 11.837 22.2366 11.2011 21.7678 10.7322C21.2989 10.2634 20.663 10 20 10C19.337 10 18.7011 10.2634 18.2322 10.7322C17.7634 11.2011 17.5 11.837 17.5 12.5C17.5 13.163 17.7634 13.7989 18.2322 14.2678C18.7011 14.7366 19.337 15 20 15ZM6.25 10V15C6.25 15.3315 6.3817 15.6495 6.61612 15.8839C6.85054 16.1183 7.16848 16.25 7.5 16.25H13.75C14.0815 16.25 14.3995 16.1183 14.6339 15.8839C14.8683 15.6495 15 15.3315 15 15V10C15 9.66848 14.8683 9.35054 14.6339 9.11612C14.3995 8.8817 14.0815 8.75 13.75 8.75H7.5C7.16848 8.75 6.85054 8.8817 6.61612 9.11612C6.3817 9.35054 6.25 9.66848 6.25 10ZM17.5 16.25C17.1685 16.25 16.8505 16.3817 16.6161 16.6161C16.3817 16.8505 16.25 17.1685 16.25 17.5V17.8125C16.25 18.7242 16.6122 19.5985 17.2568 20.2432C17.9015 20.8878 18.7758 21.25 19.6875 21.25H20.3125C21.2242 21.25 22.0985 20.8878 22.7432 20.2432C23.3878 19.5985 23.75 18.7242 23.75 17.8125V17.5C23.75 17.1685 23.6183 16.8505 23.3839 16.6161C23.1495 16.3817 22.8315 16.25 22.5 16.25H17.5Z" fill="black"/>
</svg>
