<svg width="40" height="40" viewBox="0 0 40 40" fill="none" xmlns="http://www.w3.org/2000/svg">
<g clip-path="url(#clip0_694_342)">
<path d="M6.22224 4.44434C5.75074 4.44434 5.29856 4.63164 4.96516 4.96504C4.63176 5.29843 4.44446 5.75062 4.44446 6.22211V13.3332H13.3333V4.44434H6.22224ZM11.1111 11.111H6.66668V6.66656H11.1111V11.111Z" fill="white"/>
<path d="M4.44446 33.7779C4.44446 34.2494 4.63176 34.7015 4.96516 35.0349C5.29856 35.3683 5.75074 35.5556 6.22224 35.5556H13.3333V26.6667H4.44446V33.7779ZM6.66668 28.889H11.1111V33.3334H6.66668V28.889Z" fill="white"/>
<path d="M26.6666 35.5556H33.7777C34.2492 35.5556 34.7014 35.3683 35.0348 35.0349C35.3682 34.7015 35.5555 34.2494 35.5555 33.7779V26.6667H26.6666V35.5556ZM28.8888 28.889H33.3333V33.3334H28.8888V28.889Z" fill="white"/>
<path d="M33.7777 4.44434H26.6666V13.3332H35.5555V6.22211C35.5555 5.75062 35.3682 5.29843 35.0348 4.96504C34.7014 4.63164 34.2492 4.44434 33.7777 4.44434ZM33.3333 11.111H28.8888V6.66656H33.3333V11.111Z" fill="white"/>
<path d="M22.2223 11.1111V8.88892H17.7778V13.3334H20.0001V11.1111H22.2223Z" fill="white"/>
<path d="M13.3334 13.3333H15.5556V15.5555H13.3334V13.3333Z" fill="white"/>
<path d="M15.5555 15.5557H20V17.7779H15.5555V15.5557Z" fill="white"/>
<path d="M22.2222 6.66656V8.88878H24.4444V4.44434H15.5555V8.88878H17.7778V6.66656H22.2222Z" fill="white"/>
<path d="M4.44446 15.5557H6.66668V20.0001H4.44446V15.5557Z" fill="white"/>
<path d="M13.3333 17.7779V20.0001H11.1111V15.5557H8.8889V20.0001H6.66668V22.2223H4.44446V24.4446H8.8889V22.2223H11.1111V24.4446H13.3333V22.2223H15.5556V17.7779H13.3333Z" fill="white"/>
<path d="M22.2222 17.7778H24.4444V20H26.6667V17.7778H28.8889V15.5555H24.4444V11.1111H22.2222V13.3333H20V15.5555H22.2222V17.7778Z" fill="white"/>
<path d="M20 33.3333H15.5555V35.5555H24.4444V33.3333H22.2222V31.1111H20V33.3333Z" fill="white"/>
<path d="M24.4445 22.2223V20.0001H22.2223V17.7778H20.0001V20.0001H17.7778V22.2223H20.0001V24.4445H22.2223V22.2223H24.4445Z" fill="white"/>
<path d="M33.3334 22.2222H35.5556V24.4444H33.3334V22.2222Z" fill="white"/>
<path d="M24.4445 22.2222H31.1111V24.4444H24.4445V22.2222Z" fill="white"/>
<path d="M33.3334 15.5557H31.1111V17.7779H28.8889V20.0001H31.1111V22.2223H33.3334V20.0001H35.5556V17.7779H33.3334V15.5557Z" fill="white"/>
<path d="M22.2222 24.4443H24.4444V31.111H22.2222V24.4443Z" fill="white"/>
<path d="M15.5555 31.1111H17.7778V28.8888H20V26.6666H17.7778V22.2222H15.5555V31.1111Z" fill="white"/>
</g>
<defs>
<clipPath id="clip0_694_342">
<rect width="40" height="40" fill="white"/>
</clipPath>
</defs>
</svg>
