<svg width="30" height="30" viewBox="0 0 30 30" fill="none" xmlns="http://www.w3.org/2000/svg">
<path d="M20 15C20.663 15 21.2989 14.7366 21.7678 14.2678C22.2366 13.7989 22.5 13.163 22.5 12.5C22.5 11.837 22.2366 11.2011 21.7678 10.7322C21.2989 10.2634 20.663 10 20 10C19.337 10 18.7011 10.2634 18.2322 10.7322C17.7634 11.2011 17.5 11.837 17.5 12.5C17.5 13.163 17.7634 13.7989 18.2322 14.2678C18.7011 14.7366 19.337 15 20 15ZM16.25 17.5C16.25 17.1685 16.3817 16.8505 16.6161 16.6161C16.8505 16.3817 17.1685 16.25 17.5 16.25H22.5C22.8315 16.25 23.1495 16.3817 23.3839 16.6161C23.6183 16.8505 23.75 17.1685 23.75 17.5V17.8125C23.75 18.7242 23.3878 19.5985 22.7432 20.2432C22.0985 20.8878 21.2242 21.25 20.3125 21.25H19.6875C18.7758 21.25 17.9015 20.8878 17.2568 20.2432C16.6122 19.5985 16.25 18.7242 16.25 17.8125V17.5ZM7.8125 8.75C6.95 8.75 6.25 9.45 6.25 10.3125V14.6875C6.25 15.55 6.95 16.25 7.8125 16.25H13.4375C14.3 16.25 15 15.55 15 14.6875V10.3125C15 9.45 14.3 8.75 13.4375 8.75H7.8125ZM6.5625 5C5.48506 5 4.45174 5.42801 3.68988 6.18988C2.92801 6.95175 2.5 7.98506 2.5 9.0625V20.9375C2.5 22.0149 2.92801 23.0483 3.68988 23.8101C4.45174 24.572 5.48506 25 6.5625 25H23.4375C23.971 25 24.4993 24.8949 24.9921 24.6908C25.485 24.4866 25.9329 24.1874 26.3101 23.8101C26.6874 23.4329 26.9866 22.985 27.1908 22.4922C27.3949 21.9993 27.5 21.471 27.5 20.9375V9.0625C27.5 8.52901 27.3949 8.00073 27.1908 7.50785C26.9866 7.01496 26.6874 6.56712 26.3101 6.18988C25.9329 5.81264 25.485 5.5134 24.9921 5.30924C24.4993 5.10508 23.971 5 23.4375 5H6.5625ZM4.375 9.0625C4.375 7.855 5.355 6.875 6.5625 6.875H23.4375C24.645 6.875 25.625 7.855 25.625 9.0625V20.9375C25.625 21.5177 25.3945 22.0741 24.9843 22.4843C24.5741 22.8945 24.0177 23.125 23.4375 23.125H6.5625C5.98234 23.125 5.42594 22.8945 5.0157 22.4843C4.60547 22.0741 4.375 21.5177 4.375 20.9375V9.0625Z" fill="black"/>
</svg>
