<svg width="30" height="30" viewBox="0 0 30 30" fill="none" xmlns="http://www.w3.org/2000/svg">
<path d="M26.1 10.335V10.4216L26.175 10.4649C26.5322 10.6712 26.8289 10.9678 27.0351 11.325C27.2414 11.6823 27.35 12.0875 27.35 12.5V17.5C27.35 17.9125 27.2414 18.3177 27.0351 18.675C26.8289 19.0322 26.5322 19.3288 26.175 19.5351L26.1 19.5784V19.665V22.5C26.1 23.1233 25.8524 23.721 25.4117 24.1617C24.971 24.6024 24.3733 24.85 23.75 24.85H6.25C5.62674 24.85 5.02901 24.6024 4.5883 24.1617C4.14759 23.721 3.9 23.1233 3.9 22.5V7.5C3.9 6.87674 4.14759 6.27901 4.5883 5.8383C5.02901 5.39759 5.62674 5.15 6.25 5.15H23.75C24.3733 5.15 24.971 5.39759 25.4117 5.8383C25.8524 6.27901 26.1 6.87674 26.1 7.5V10.335ZM23.9 7.5V7.35H23.75H6.25H6.1V7.5V22.5V22.65H6.25H23.75H23.9V22.5V20V19.85H23.75H18.75C17.4847 19.85 16.2695 19.3556 15.3636 18.4721C14.4578 17.5887 13.9331 16.3862 13.9014 15.1213C13.8698 13.8564 14.3337 12.6292 15.1943 11.7015C16.0544 10.7744 17.2426 10.2199 18.5056 10.1562L18.7519 10.15H23.75H23.9V10V7.5ZM25.15 12.5V12.35H25H18.75C18.0472 12.35 17.3731 12.6292 16.8762 13.1262C16.3792 13.6231 16.1 14.2972 16.1 15C16.1 15.7028 16.3792 16.3769 16.8762 16.8738C17.3731 17.3708 18.0472 17.65 18.75 17.65H25H25.15V17.5V12.5ZM20 13.9C20.2917 13.9 20.5715 14.0159 20.7778 14.2222C20.9841 14.4285 21.1 14.7083 21.1 15C21.1 15.2917 20.9841 15.5715 20.7778 15.7778C20.5715 15.9841 20.2917 16.1 20 16.1C19.7083 16.1 19.4285 15.9841 19.2222 15.7778C19.0159 15.5715 18.9 15.2917 18.9 15C18.9 14.7083 19.0159 14.4285 19.2222 14.2222C19.4285 14.0159 19.7083 13.9 20 13.9Z" fill="black" stroke="white" stroke-width="0.3"/>
</svg>
